<?xml version="1.0" standalone="no"?>
<!DOCTYPE svg PUBLIC "-//W3C//DTD SVG 20010904//EN"
 "http://www.w3.org/TR/2001/REC-SVG-20010904/DTD/svg10.dtd">
<svg version="1.0" xmlns="http://www.w3.org/2000/svg"
 width="243.000000pt" height="243.000000pt" viewBox="0 0 243.000000 243.000000"
 preserveAspectRatio="xMidYMid meet">

<g transform="translate(0.000000,243.000000) scale(0.100000,-0.100000)"
fill="#000000" stroke="none">
<path d="M2075 1797 c-161 -84 -486 -333 -690 -527 -122 -117 -199 -173 -331
-239 -179 -90 -336 -142 -508 -167 -112 -17 -235 -15 -303 5 -18 5 -33 6 -33
2 0 -15 25 -31 47 -31 15 0 23 -6 23 -16 0 -11 -6 -15 -20 -11 -20 5 -20 4 2
-36 13 -22 37 -56 55 -74 17 -19 33 -44 35 -56 5 -38 99 -60 268 -61 362 -2
646 127 1080 489 227 190 370 298 500 379 58 36 110 67 115 69 18 7 -91 292
-118 309 -21 14 -41 8 -122 -35z m130 -37 c5 -8 -54 -40 -76 -40 -21 0 -6 21
24 34 40 18 44 18 52 6z m-165 -90 c0 -14 -62 -50 -73 -43 -12 8 38 53 59 53
8 0 14 -5 14 -10z m-150 -99 c0 -13 -50 -51 -66 -51 -24 0 -15 20 19 40 35 22
47 25 47 11z m375 -11 c6 -10 -51 -50 -72 -50 -23 0 -14 18 20 38 38 24 44 25
52 12z m-545 -132 c-37 -31 -50 -35 -50 -15 0 16 61 58 73 50 6 -4 -5 -19 -23
-35z m390 35 c0 -12 -33 -43 -47 -43 -7 0 -13 -4 -13 -10 0 -5 -4 -10 -10 -10
-22 0 -8 29 23 49 33 22 47 26 47 14z m-150 -112 c0 -17 -64 -61 -74 -51 -5 5
-8 11 -5 13 66 51 79 57 79 38z m-360 -9 c0 -5 -14 -21 -30 -37 -21 -20 -33
-26 -41 -18 -7 7 -1 18 21 37 32 26 50 33 50 18z m191 -134 c-17 -15 -36 -28
-41 -28 -19 0 -10 18 21 44 42 36 61 21 20 -16z m-331 13 c0 -5 -14 -21 -32
-36 -23 -19 -34 -23 -37 -14 -2 7 8 23 23 36 28 24 46 29 46 14z m215 -100 c7
-12 -63 -67 -72 -57 -7 7 45 66 58 66 4 0 10 -4 14 -9z m-360 -10 c6 -11 -42
-51 -61 -51 -22 0 -16 17 12 39 29 23 40 26 49 12z m-150 -101 c3 -5 -12 -18
-34 -30 -47 -24 -51 -24 -51 -7 0 7 15 21 33 30 39 19 44 20 52 7z m369 -9 c9
-14 -67 -62 -79 -50 -7 7 -5 13 5 19 8 5 24 16 35 24 23 18 32 19 39 7z m-534
-75 c0 -18 -72 -48 -84 -35 -11 10 -12 10 34 31 44 21 50 21 50 4z m384 -34
c7 -11 -73 -56 -82 -47 -8 8 47 55 65 55 6 0 14 -4 17 -8z m-554 -32 c0 -12
-42 -30 -71 -30 -28 0 -23 17 9 28 36 14 62 14 62 2z m-182 -42 c-6 -18 -88
-29 -88 -12 0 14 20 21 63 23 19 1 27 -3 25 -11z m-185 -13 c-4 -15 -86 -12
-91 3 -3 10 8 12 44 10 27 -2 48 -7 47 -13z m762 -5 c3 -5 -12 -18 -34 -30
-26 -13 -42 -16 -46 -9 -8 12 -9 12 30 32 36 19 42 20 50 7z m-165 -80 c0 -10
-31 -26 -65 -32 -30 -5 -28 19 2 30 37 14 63 14 63 2z m-180 -54 c0 -7 -14
-16 -31 -20 -47 -9 -61 -7 -57 7 4 10 18 15 81 26 4 0 7 -5 7 -13z m-361 -21
c12 -11 -14 -20 -48 -17 -28 3 -41 9 -41 19 0 12 8 13 43 8 23 -4 44 -9 46
-10z m181 -10 c0 -11 -12 -15 -45 -15 -42 0 -54 7 -38 23 3 4 24 7 45 7 27 0
38 -4 38 -15z"/>
<path d="M1020 1664 c-62 -8 -233 -52 -302 -78 -119 -45 -302 -143 -386 -206
-147 -111 -222 -213 -222 -304 0 -68 28 -109 98 -143 54 -27 64 -28 197 -28
153 1 205 9 370 62 199 64 388 164 505 268 116 103 169 186 170 265 0 64 -27
102 -95 135 -51 25 -68 28 -178 31 -67 1 -138 0 -157 -2z m91 -74 c69 -37 -51
-147 -194 -180 -67 -15 -127 1 -127 34 0 50 64 102 166 135 66 22 126 26 155
11z m193 -149 c23 -26 14 -52 -31 -92 -50 -43 -136 -80 -204 -86 -169 -16
-111 124 76 183 63 20 139 18 159 -5z m-630 -27 c19 -19 19 -18 2 -53 -19 -36
-79 -75 -155 -101 -78 -26 -125 -26 -151 0 -19 19 -19 22 -5 50 42 81 259 154
309 104z m161 -94 c19 -30 -52 -80 -115 -80 -27 0 -31 3 -28 22 6 44 122 92
143 58z m129 -129 c11 -12 15 -27 11 -40 -10 -32 -80 -86 -141 -110 -62 -23
-163 -28 -182 -9 -46 46 58 144 178 168 68 15 116 11 134 -9z m-396 -7 c12 -8
22 -21 22 -29 0 -26 -61 -84 -116 -111 -63 -31 -174 -44 -199 -24 -28 23 -17
56 31 99 76 67 211 101 262 65z"/>
</g>
</svg>
